<?xml version="1.0" standalone="no"?>
<!DOCTYPE svg PUBLIC "-//W3C//DTD SVG 20010904//EN"
 "http://www.w3.org/TR/2001/REC-SVG-20010904/DTD/svg10.dtd">
<svg version="1.0" xmlns="http://www.w3.org/2000/svg"
 width="1280.000000pt" height="767.000000pt" viewBox="0 0 1280.000000 767.000000"
 preserveAspectRatio="xMidYMid meet">
<metadata>
Created by potrace 1.15, written by Peter Selinger 2001-2017
</metadata>
<g transform="translate(0.000000,767.000000) scale(0.100000,-0.100000)"
fill="#000000" stroke="none">
<path d="M5605 7664 c-16 -2 -66 -9 -110 -15 -241 -32 -505 -134 -725 -280
-121 -80 -313 -271 -396 -394 -211 -311 -356 -728 -378 -1089 -7 -104 -17
-136 -43 -136 -8 0 -57 18 -107 39 -122 52 -178 61 -380 61 -203 0 -238 -8
-391 -85 -272 -136 -457 -335 -619 -661 -119 -240 -111 -204 -111 -484 0 -274
0 -271 89 -449 21 -40 36 -75 34 -77 -3 -2 -139 -17 -304 -34 -360 -36 -406
-43 -599 -81 -583 -118 -1046 -381 -1265 -719 -89 -138 -198 -393 -245 -573
-40 -155 -50 -257 -50 -497 1 -319 30 -496 111 -681 184 -418 556 -742 974
-848 245 -62 676 -42 973 44 92 26 180 68 358 166 58 33 110 59 115 59 5 0 38
-47 73 -103 91 -143 272 -324 436 -433 343 -228 702 -352 1114 -384 332 -25
624 0 936 81 378 97 672 254 919 489 125 119 191 202 289 361 42 70 83 132 91
138 12 10 30 -11 104 -121 216 -318 497 -568 817 -724 138 -67 227 -99 363
-129 534 -121 1116 24 1572 392 114 92 329 323 479 516 29 37 58 67 64 67 7 0
63 -48 126 -106 182 -168 289 -230 516 -299 214 -65 327 -80 600 -80 187 1
256 4 312 17 147 34 477 180 618 274 127 84 403 359 511 509 127 178 250 490
301 760 24 129 24 419 0 540 -70 345 -226 610 -522 879 -203 185 -329 274
-520 366 -557 269 -1172 304 -1594 91 -35 -18 -65 -30 -68 -27 -3 3 -19 81
-35 173 -92 536 -195 791 -445 1098 -207 255 -469 417 -798 493 -343 80 -732
67 -1105 -37 -172 -48 -150 -67 -187 156 -53 317 -113 513 -232 758 -259 534
-684 887 -1200 995 -93 20 -389 35 -466 24z m309 -494 c264 -26 490 -131 732
-340 165 -143 290 -311 399 -534 149 -305 215 -595 215 -943 0 -128 3 -164 13
-160 6 3 49 21 94 41 319 137 713 209 1018 186 576 -43 1012 -435 1205 -1082
44 -149 76 -323 105 -568 14 -124 30 -229 34 -233 13 -13 40 4 176 107 136
104 206 139 332 166 232 49 448 51 648 5 397 -91 733 -273 986 -532 205 -210
332 -435 385 -683 26 -125 24 -340 -5 -489 -40 -206 -122 -416 -218 -557 -106
-156 -337 -380 -518 -501 -144 -97 -373 -187 -555 -219 -201 -35 -439 0 -629
91 -234 113 -368 261 -540 596 -77 147 -79 151 -93 128 -8 -13 -41 -69 -73
-124 -117 -202 -348 -532 -449 -643 -220 -240 -601 -468 -883 -527 -163 -34
-477 -29 -648 10 -241 56 -508 204 -704 391 -185 176 -315 361 -475 673 -54
106 -99 191 -101 189 -2 -2 -29 -70 -60 -153 -126 -329 -233 -511 -400 -680
-111 -112 -243 -201 -436 -294 -318 -154 -576 -211 -956 -211 -474 0 -886 110
-1167 311 -103 74 -298 257 -363 341 -56 73 -135 232 -204 411 -29 75 -56 137
-59 136 -3 0 -54 -63 -115 -140 -223 -285 -386 -400 -645 -455 -66 -14 -130
-18 -280 -18 -178 0 -203 3 -291 26 -316 85 -603 319 -751 612 -155 307 -184
697 -83 1098 68 266 163 443 331 613 328 332 795 492 1594 545 85 5 258 14
384 19 125 6 230 11 231 13 2 2 -60 71 -137 153 -165 175 -209 239 -232 331
-22 86 -23 247 -2 335 83 355 343 674 647 794 269 107 474 59 799 -189 l75
-57 12 93 c6 51 17 167 23 258 15 225 35 360 75 504 70 256 188 481 357 683
286 342 734 518 1202 473z"/>
</g>
</svg>
