<?xml version="1.0" standalone="no"?>
<!DOCTYPE svg PUBLIC "-//W3C//DTD SVG 20010904//EN"
 "http://www.w3.org/TR/2001/REC-SVG-20010904/DTD/svg10.dtd">
<svg version="1.0" xmlns="http://www.w3.org/2000/svg"
 width="1280.000000pt" height="1251.000000pt" viewBox="0 0 1280.000000 1251.000000"
 preserveAspectRatio="xMidYMid meet">
<metadata>
Created by potrace 1.15, written by Peter Selinger 2001-2017
</metadata>
<g transform="translate(0.000000,1251.000000) scale(0.100000,-0.100000)"
fill="#000000" stroke="none">
<path d="M6385 12498 c-3 -7 -6 -119 -7 -248 l-3 -235 -90 -2 c-855 -21 -1627
-154 -2375 -409 -1577 -537 -2828 -1567 -3459 -2849 -263 -532 -401 -1036
-446 -1627 -7 -78 -6 -87 12 -96 10 -6 24 -8 29 -4 6 4 34 51 62 106 75 142
152 246 277 371 306 306 694 473 1145 492 515 21 1020 -187 1342 -553 125
-141 233 -319 295 -484 14 -36 29 -70 34 -77 6 -6 9 -24 7 -39 -4 -36 20 -43
27 -7 14 70 30 115 74 213 375 843 1452 1197 2319 761 303 -153 567 -412 712
-701 l43 -85 -6 -2745 c-4 -1510 -11 -2864 -16 -3010 -11 -285 -31 -439 -74
-565 -89 -259 -259 -435 -472 -490 -76 -19 -212 -19 -295 1 -36 8 -103 33
-150 56 -70 33 -101 56 -172 128 -74 75 -93 102 -136 191 -74 153 -86 211 -87
416 -2 179 -7 204 -54 240 -19 15 -66 17 -90 3 -53 -28 -77 -242 -47 -424 72
-434 346 -734 746 -812 98 -19 239 -15 335 11 220 59 427 236 544 465 72 142
105 248 137 440 16 98 18 310 21 3114 l3 3008 47 89 c197 375 604 690 1033
799 210 54 441 72 630 51 415 -47 757 -208 1035 -486 164 -165 265 -320 366
-562 19 -46 38 -81 44 -80 5 2 13 21 17 43 3 21 22 76 42 122 207 481 675 843
1221 943 220 40 481 36 704 -12 205 -45 447 -151 617 -272 120 -85 276 -237
354 -346 48 -66 71 -90 88 -90 12 -1 25 5 28 13 3 8 -2 67 -11 133 -78 587
-284 1165 -601 1695 -135 224 -278 425 -463 648 -127 153 -514 540 -676 674
-407 339 -828 611 -1310 847 -919 451 -1911 696 -3012 745 l-153 7 0 229 c0
139 -4 237 -10 249 -9 16 -22 19 -91 19 -54 0 -81 -4 -84 -12z"/>
</g>
</svg>
