<?xml version="1.0" standalone="no"?>
<!DOCTYPE svg PUBLIC "-//W3C//DTD SVG 20010904//EN"
 "http://www.w3.org/TR/2001/REC-SVG-20010904/DTD/svg10.dtd">
<svg version="1.0" xmlns="http://www.w3.org/2000/svg"
 width="1280.000000pt" height="1102.000000pt" viewBox="0 0 1280.000000 1102.000000"
 preserveAspectRatio="xMidYMid meet">
<metadata>
Created by potrace 1.15, written by Peter Selinger 2001-2017
</metadata>
<g transform="translate(0.000000,1102.000000) scale(0.100000,-0.100000)"
fill="#000000" stroke="none">
<path d="M5000 10782 c-104 -32 -398 -150 -515 -206 -82 -40 -161 -76 -175
-79 -43 -11 -118 -65 -149 -108 -87 -120 -108 -309 -65 -579 7 -46 12 -85 11
-86 -1 -1 -51 11 -112 28 -141 38 -331 49 -416 25 -103 -30 -166 -108 -178
-217 l-6 -55 -47 2 c-62 2 -104 24 -180 93 -85 80 -103 85 -170 53 -62 -30
-256 -222 -381 -374 -98 -120 -99 -120 -430 -153 -117 -12 -156 -20 -189 -38
-88 -48 -110 -123 -82 -283 9 -55 17 -108 18 -118 1 -14 -21 -27 -89 -56 -293
-124 -462 -244 -517 -368 -28 -64 -22 -166 16 -248 14 -32 25 -59 24 -60 -2
-1 -50 -26 -108 -54 -198 -99 -339 -210 -388 -307 -36 -72 -62 -238 -62 -399
0 -49 -3 -113 -6 -141 l-6 -51 -65 -2 c-82 -3 -178 -32 -231 -71 -99 -72 -143
-180 -143 -355 0 -169 38 -337 126 -554 25 -62 45 -114 45 -115 0 0 -40 -1
-88 -1 -79 0 -93 -3 -129 -27 -77 -50 -103 -155 -85 -332 25 -240 107 -439
271 -656 l67 -89 -27 -212 c-24 -185 -26 -217 -14 -255 16 -55 84 -179 178
-326 59 -91 87 -149 127 -260 70 -194 165 -428 208 -513 65 -130 84 -145 136
-104 15 12 28 20 30 18 1 -2 15 -51 30 -109 56 -215 138 -388 230 -488 74 -80
129 -106 234 -110 73 -4 82 -6 76 -21 -15 -37 -16 -156 -2 -191 33 -77 131
-157 246 -200 40 -15 512 -110 547 -110 2 0 -3 -16 -11 -35 -62 -149 73 -414
383 -750 171 -186 315 -316 434 -392 57 -36 109 -68 116 -70 33 -13 -118 315
-236 512 -39 66 -90 157 -112 201 -34 68 -39 85 -30 102 13 24 58 38 148 45
l62 5 61 -114 c75 -143 176 -307 240 -394 109 -147 241 -241 545 -390 266
-131 466 -210 465 -183 -1 8 -79 65 -289 212 -215 149 -347 281 -370 369 -13
46 -37 197 -45 275 -5 46 -3 57 9 57 34 0 237 -75 327 -122 71 -36 111 -64
146 -102 44 -48 50 -62 74 -158 60 -243 176 -385 352 -433 72 -20 199 -17 306
6 31 7 92 9 145 6 165 -9 330 -79 506 -212 113 -86 133 -96 142 -72 10 27 -24
79 -109 167 -95 98 -183 162 -287 209 -89 40 -270 97 -335 106 -48 6 -59 13
-126 78 -66 65 -122 145 -183 260 -27 49 -43 128 -43 204 l0 54 157 -159 c299
-301 443 -380 753 -412 312 -32 396 -70 635 -286 156 -141 254 -207 348 -235
135 -42 232 -15 441 121 229 148 268 158 432 112 164 -46 228 -55 327 -48 133
10 266 48 402 115 182 89 274 167 239 201 -11 11 -264 -11 -494 -43 -245 -33
-264 -31 -465 39 l-170 59 -115 -1 c-145 -1 -234 -24 -388 -99 -110 -53 -115
-54 -160 -44 -96 21 -181 85 -263 196 -93 125 -165 183 -251 202 -160 36 -325
151 -482 334 -27 32 -47 59 -44 62 5 6 394 -64 725 -130 247 -49 293 -62 492
-134 248 -90 333 -111 455 -111 100 0 188 25 354 99 116 53 211 85 283 95 40
6 70 -2 245 -63 262 -91 331 -117 572 -213 l204 -82 71 12 c85 15 444 133 576
190 96 42 148 79 133 94 -19 19 -525 87 -789 106 l-111 9 -169 100 c-351 210
-424 245 -549 263 -107 16 -210 -2 -435 -75 -309 -101 -360 -106 -497 -49
-133 55 -586 256 -595 264 -16 14 834 144 1029 157 115 7 167 -4 314 -72 122
-57 206 -85 252 -85 41 0 133 34 318 118 292 132 364 139 626 63 202 -59 323
-101 423 -147 107 -49 137 -47 320 31 110 47 221 35 423 -45 l96 -39 64 14
c139 29 494 168 549 214 19 16 31 32 28 35 -15 15 -375 61 -599 76 -108 8
-189 19 -233 32 -81 24 -126 21 -242 -17 -44 -14 -109 -28 -145 -31 l-65 -5
-156 79 c-86 43 -195 104 -244 136 -156 102 -284 103 -659 6 -143 -37 -292
-53 -383 -41 -102 13 -501 160 -679 249 l-78 39 230 7 c479 14 1005 44 1099
62 17 3 98 25 180 49 194 56 265 68 383 63 121 -5 186 -33 317 -136 173 -137
256 -164 515 -166 124 0 167 3 218 18 87 26 172 83 208 139 25 40 37 49 84 63
89 27 389 100 468 114 49 9 72 18 72 27 0 47 -449 161 -588 150 -55 -4 -88
-17 -235 -90 -235 -117 -234 -117 -331 -77 -43 18 -126 62 -184 98 -207 127
-238 143 -312 166 -153 49 -266 44 -493 -20 -188 -53 -274 -61 -399 -40 -293
51 -433 122 -478 243 -23 61 -46 264 -33 286 6 11 35 -1 128 -54 294 -169 563
-249 732 -219 91 16 200 59 313 125 269 157 388 195 545 173 91 -13 160 -41
280 -118 177 -112 294 -153 382 -130 77 19 121 48 209 136 96 95 154 138 215
159 64 23 182 19 295 -10 128 -33 162 -31 261 8 141 58 232 122 206 147 -12
12 -230 75 -343 100 -52 11 -119 32 -149 46 -45 22 -65 25 -115 22 -70 -4
-174 -49 -275 -117 -33 -23 -91 -56 -128 -75 -183 -92 -291 -74 -503 85 -140
105 -197 131 -298 137 -107 6 -175 -8 -357 -75 -184 -67 -601 -173 -684 -173
-157 0 -291 99 -394 290 -40 75 -92 209 -84 217 3 3 54 -7 114 -21 201 -47
288 -58 433 -54 168 5 240 28 490 153 223 112 325 146 451 153 90 4 105 2 270
-43 276 -76 302 -74 530 31 63 30 138 58 165 63 90 17 169 -13 309 -116 107
-78 126 -90 182 -112 103 -40 98 -41 227 69 63 55 155 138 203 184 106 102
101 111 -46 77 -53 -13 -129 -28 -170 -34 -82 -13 -65 -19 -231 82 -165 100
-400 171 -562 171 -86 0 -152 -15 -314 -69 -131 -44 -256 -64 -322 -52 -56 11
-248 107 -353 177 l-84 56 -80 -4 c-97 -6 -178 -37 -322 -126 -274 -168 -380
-181 -492 -59 -78 85 -185 226 -177 234 1 2 74 8 162 13 374 24 667 84 814
167 25 14 83 50 130 79 115 72 196 103 299 115 128 15 198 -2 411 -105 186
-90 265 -116 353 -116 73 0 216 37 357 93 146 58 262 91 370 107 90 12 185 4
624 -51 87 -11 161 -17 164 -14 3 2 0 16 -6 29 -23 51 -335 226 -502 282 -151
50 -210 41 -690 -109 -54 -17 -94 -20 -230 -21 -162 0 -166 0 -249 31 -46 18
-128 57 -182 87 -103 58 -190 98 -274 125 -64 20 -267 21 -935 2 -272 -7 -511
-12 -530 -10 -32 4 -26 8 80 53 406 173 543 237 655 308 190 119 237 139 332
139 85 0 174 -33 335 -123 171 -94 182 -100 313 -136 164 -46 310 -74 400 -76
77 -1 84 1 189 52 60 29 130 65 155 81 25 15 70 36 100 46 55 18 83 18 377 -1
169 -11 278 18 342 90 39 45 48 74 29 93 -8 9 -63 28 -122 44 -150 41 -243 79
-375 154 -154 87 -168 87 -327 3 l-118 -62 -130 -12 c-189 -19 -486 -18 -560
1 -85 22 -183 71 -310 155 -140 93 -226 136 -312 156 -130 30 -209 6 -392
-120 -59 -41 -130 -84 -157 -94 -110 -43 -273 -34 -436 24 -93 34 -253 108
-262 122 -11 19 24 164 55 229 32 67 70 101 124 113 54 12 375 -44 438 -77 41
-21 164 -13 347 23 164 31 305 35 400 10 36 -9 135 -50 220 -91 184 -88 209
-95 321 -95 116 0 209 19 445 91 240 73 264 75 424 25 460 -144 526 -159 571
-136 51 27 50 39 -7 100 -81 86 -277 226 -411 293 -198 99 -309 106 -573 37
-270 -71 -359 -64 -618 54 -151 69 -205 86 -299 95 -103 10 -174 -1 -328 -52
-118 -38 -140 -42 -230 -42 -126 0 -162 17 -260 123 -139 150 -177 184 -233
210 -52 24 -68 27 -167 26 -124 -1 -213 -23 -376 -93 -51 -22 -95 -39 -96 -37
-8 8 175 184 242 235 133 100 272 150 384 136 31 -4 135 -33 231 -66 96 -32
212 -64 256 -71 79 -11 86 -11 205 21 68 18 211 61 317 97 168 56 202 64 268
64 137 0 307 -48 505 -141 109 -52 111 -53 157 -41 64 17 298 134 465 233 204
122 262 179 183 179 -69 0 -358 -42 -498 -72 -78 -16 -157 -32 -175 -35 -22
-4 -79 12 -190 51 -317 111 -413 136 -524 136 -100 0 -207 -24 -352 -79 -130
-50 -242 -79 -327 -87 -81 -8 -154 10 -305 73 -60 25 -146 61 -191 79 -109 46
-213 61 -300 45 -78 -14 -141 -44 -234 -112 -38 -27 -94 -61 -125 -75 -50 -23
-66 -26 -125 -21 -83 7 -197 50 -310 117 -140 84 -139 77 -18 147 229 134 432
220 621 263 126 29 253 24 417 -16 95 -23 137 -28 245 -29 122 0 133 2 187 28
31 15 102 61 158 102 180 132 266 157 458 137 133 -13 228 -47 340 -118 96
-61 142 -71 282 -61 230 17 615 162 615 232 0 27 -33 33 -285 49 -333 22 -396
39 -543 144 -107 77 -158 106 -237 132 -59 20 -77 22 -205 16 -258 -12 -316
-29 -491 -152 -219 -152 -357 -174 -583 -93 -307 111 -358 112 -661 14 -91
-30 -197 -59 -235 -66 -125 -21 -398 -2 -650 47 -90 17 -378 85 -384 90 -2 2
30 43 70 90 137 162 261 245 437 291 83 22 119 26 257 27 184 1 211 -5 420
-101 350 -160 473 -152 777 48 226 148 348 183 502 143 87 -23 228 -15 323 18
96 34 195 102 281 192 99 105 138 187 95 203 -9 4 -95 -4 -192 -16 -276 -36
-367 -38 -509 -11 l-120 23 -57 -27 c-39 -19 -98 -68 -185 -152 -76 -72 -150
-134 -179 -149 -112 -56 -301 -74 -451 -41 -41 9 -187 54 -325 101 -511 174
-606 175 -1075 19 -362 -121 -399 -129 -630 -128 -213 0 -343 11 -639 51
l-193 26 -59 44 c-108 82 -179 179 -179 247 0 53 24 54 239 15 150 -27 210
-34 311 -33 116 0 132 3 230 36 58 20 188 73 290 118 102 45 232 98 290 118
105 35 105 35 189 23 115 -16 244 -59 434 -145 280 -126 381 -152 575 -143
113 5 163 14 447 81 595 141 831 218 733 241 -52 11 -479 56 -688 71 l-225 16
-145 58 c-371 148 -649 217 -978 242 -166 13 -346 2 -471 -27 -79 -19 -196
-73 -355 -165 -137 -79 -217 -113 -325 -141 -147 -38 -243 -19 -476 96 -145
71 -212 96 -284 109 -31 6 -38 1 -99 -61 -65 -68 -251 -284 -412 -480 -81 -99
-85 -102 -103 -85 -86 75 -88 328 -5 484 62 116 214 232 376 286 69 23 93 26
227 26 125 1 165 -3 239 -22 188 -49 343 -48 450 3 50 24 84 50 75 59 -2 2
-83 14 -179 26 -204 25 -539 80 -690 113 -58 13 -112 21 -120 19z m-189 -1372
c867 -41 1574 -301 2223 -820 618 -493 1076 -1140 1300 -1836 235 -733 246
-1595 30 -2341 -180 -621 -524 -1182 -1025 -1668 -406 -393 -842 -674 -1335
-858 -700 -262 -1552 -308 -2302 -126 -297 73 -646 206 -890 341 l-76 41 44
39 c62 56 172 107 265 123 148 26 475 14 839 -30 110 -14 205 -25 213 -25 31
0 8 19 -73 59 -199 99 -429 166 -728 211 -209 31 -405 41 -799 39 l-358 -2
-35 34 c-28 27 -34 39 -29 59 17 67 92 106 239 122 83 10 117 9 168 -1 156
-33 189 -28 292 39 206 135 250 137 601 38 188 -53 404 -98 411 -86 7 11 -223
241 -376 377 -129 114 -242 191 -280 191 -48 0 -210 -46 -348 -99 -213 -81
-311 -99 -402 -71 -41 12 -123 25 -580 86 -307 41 -336 46 -352 67 -10 12 -18
30 -18 40 0 44 197 210 266 223 27 5 44 -1 93 -31 75 -45 194 -89 287 -105
118 -21 327 -8 539 33 99 19 206 38 238 42 38 4 57 11 54 18 -7 21 -107 85
-183 117 -102 42 -252 76 -428 96 l-149 17 -76 55 c-42 30 -117 87 -168 128
-159 128 -238 171 -343 189 -25 4 -84 -8 -205 -41 -296 -81 -287 -79 -307 -54
-10 12 -18 32 -18 45 0 39 54 101 117 131 54 27 66 29 173 28 64 -1 203 -13
315 -29 357 -49 508 -38 788 55 206 69 531 235 525 268 -7 35 -112 35 -379 -3
-168 -23 -435 -37 -517 -26 -86 11 -178 52 -271 120 -176 129 -190 132 -591
138 -179 2 -334 6 -345 8 -11 2 -25 18 -32 35 -10 27 -9 32 13 49 27 21 114
44 229 61 162 23 191 29 245 49 30 11 91 43 135 71 101 64 173 91 257 98 87 6
156 -8 358 -74 257 -83 324 -97 475 -96 194 0 346 37 535 130 118 59 200 132
200 180 0 18 -5 32 -12 32 -7 0 -69 -22 -138 -50 -192 -75 -340 -95 -485 -65
-79 16 -278 112 -520 250 -287 163 -380 182 -628 126 -184 -42 -267 -42 -390
-1 -227 76 -326 172 -327 314 0 59 1 60 53 111 30 29 85 67 123 86 59 29 81
34 156 37 80 4 93 1 151 -26 35 -16 119 -67 187 -112 177 -119 203 -128 373
-140 352 -24 544 -2 496 56 -31 38 -170 117 -431 247 -310 153 -325 165 -385
296 -139 303 -164 330 -372 390 -57 16 -108 34 -113 39 -16 16 1 70 29 91 36
29 190 86 618 231 418 141 574 199 683 254 178 90 275 88 682 -9 235 -56 355
-72 432 -56 58 12 144 61 228 131 68 55 165 119 225 146 82 38 357 80 605 93
l135 7 -49 22 c-135 62 -351 102 -545 102 -107 0 -146 -5 -280 -36 -86 -19
-208 -54 -271 -76 -63 -22 -128 -42 -145 -45 -34 -5 -276 42 -445 87 -63 17
-196 51 -294 76 l-180 46 -250 -22 c-175 -14 -309 -20 -441 -18 l-190 3 65 66
c50 50 79 71 125 89 80 29 215 57 323 65 104 8 469 -8 745 -32 l198 -17 102
23 c211 47 677 214 677 243 0 11 -46 5 -246 -33 -183 -34 -350 -52 -413 -44
-64 9 -331 89 -473 142 -136 51 -217 63 -420 63 -76 0 -138 3 -138 8 0 4 11
15 25 25 31 22 138 33 465 47 510 21 587 28 780 64 102 19 201 37 221 40 26 5
84 -6 198 -34 231 -58 440 -92 410 -66 -18 15 -256 150 -345 196 -221 114
-319 135 -589 125 -210 -7 -427 5 -506 28 l-44 13 80 47 c78 46 82 47 165 46
179 0 289 -16 430 -59 203 -63 213 -63 490 8 279 72 364 86 445 79 83 -9 326
-72 393 -102 64 -29 85 -22 58 20 -24 37 -168 141 -257 186 -43 21 -107 46
-143 55 -61 15 -76 15 -213 0 -82 -10 -191 -25 -243 -35 -78 -15 -114 -17
-202 -10 -173 14 -338 52 -317 74 3 3 41 14 84 25 73 19 111 20 526 20 329 0
450 3 455 12 11 18 -27 42 -125 77 -50 18 -91 37 -91 42 0 11 -8 10 185 19 88
3 165 7 170 8 6 1 103 -3 216 -8z"/>
<path d="M2799 7090 c-190 -23 -424 -123 -606 -258 -87 -65 -133 -117 -164
-187 -29 -66 -23 -97 22 -108 65 -15 196 65 387 236 77 69 239 151 336 171
123 26 213 -5 356 -123 47 -39 117 -92 156 -119 76 -52 136 -70 369 -113 120
-21 171 -45 281 -128 135 -101 325 -316 386 -435 27 -52 37 -201 27 -370 -6
-108 -11 -132 -48 -228 -28 -72 -41 -122 -41 -155 0 -114 99 -173 205 -124 90
42 107 92 81 244 -9 53 -21 190 -26 304 -15 302 -45 474 -100 583 -17 34 -164
163 -276 244 -58 41 -164 94 -400 201 -113 51 -213 107 -333 185 -94 61 -192
120 -216 131 -94 42 -276 64 -396 49z"/>
<path d="M6492 7006 c-108 -21 -201 -51 -357 -117 -100 -42 -188 -70 -310 -98
-213 -50 -382 -120 -637 -263 l-106 -60 -42 -91 c-24 -50 -54 -122 -67 -160
l-24 -69 3 -497 c3 -484 4 -498 27 -586 36 -138 90 -235 132 -235 9 0 20 7 23
15 3 9 3 219 0 468 -6 387 -4 473 10 597 25 208 42 287 79 349 40 67 139 159
217 200 89 48 446 156 659 200 111 23 144 37 255 108 153 99 246 123 373 98
92 -19 221 -77 312 -143 36 -25 118 -97 183 -158 139 -135 187 -169 223 -160
32 8 61 55 75 122 15 71 4 88 -92 154 -45 30 -131 95 -191 144 -114 91 -203
140 -312 171 -82 23 -334 29 -433 11z"/>
<path d="M6030 6445 c-201 -45 -392 -175 -501 -342 -56 -87 -112 -215 -113
-263 l-1 -35 90 -8 c50 -4 137 -4 195 0 141 11 173 7 309 -32 166 -48 224 -56
334 -44 192 22 315 58 504 150 92 44 133 70 167 106 190 203 190 203 167 203
-25 0 -71 -22 -116 -55 -45 -33 -65 -37 -92 -19 l-25 16 20 21 c25 27 82 121
82 134 0 6 -23 -1 -50 -15 -76 -37 -200 -43 -200 -9 0 7 16 36 36 65 20 30 34
56 31 58 -2 3 -26 -5 -53 -16 -57 -25 -133 -35 -153 -21 -12 8 -13 14 -3 37 7
14 11 28 9 30 -2 2 -31 -2 -64 -8 -58 -11 -66 -9 -160 22 -87 29 -113 34 -223
36 -84 3 -146 -1 -190 -11z m100 -100 c0 -2 -14 -12 -32 -21 -46 -24 -127
-103 -149 -146 -44 -86 -13 -227 65 -296 20 -17 32 -32 27 -32 -5 0 -67 14
-138 32 -94 24 -151 32 -217 33 l-88 0 4 46 c10 101 92 206 237 303 96 64 152
85 229 86 34 0 62 -2 62 -5z m553 -137 c150 -100 227 -172 205 -194 -7 -7 -35
-21 -63 -32 -27 -11 -111 -45 -185 -76 -156 -65 -216 -76 -130 -23 63 38 89
81 97 161 5 47 2 64 -21 109 -14 30 -45 75 -67 101 l-41 46 33 0 c25 0 67 -23
172 -92z m-283 67 c14 -17 27 -105 15 -105 -9 0 -105 72 -105 79 0 2 7 13 17
23 20 22 56 23 73 3z m-155 -318 c-22 -61 -30 -74 -45 -70 -23 6 -53 38 -49
51 5 12 113 101 118 96 2 -2 -9 -36 -24 -77z"/>
<path d="M3055 6435 c-33 -7 -87 -23 -120 -35 -67 -26 -78 -27 -154 -15 -50 7
-54 7 -49 -11 14 -49 14 -49 -28 -52 -26 -2 -66 6 -107 22 -37 14 -67 23 -67
21 0 -3 16 -29 35 -59 19 -30 35 -59 35 -65 0 -5 -16 -15 -35 -21 -42 -14
-113 -1 -175 30 -22 11 -44 20 -50 20 -15 0 26 -71 68 -121 28 -32 32 -42 22
-54 -19 -23 -39 -18 -120 30 -63 38 -120 57 -120 40 0 -11 175 -172 242 -222
106 -80 190 -127 300 -167 145 -54 225 -69 373 -70 123 -1 137 1 255 36 190
57 247 62 423 42 180 -21 203 -17 201 39 -3 81 -136 303 -248 412 -115 112
-233 172 -390 200 -106 18 -209 18 -291 0z m417 -138 c157 -71 283 -203 308
-324 15 -71 10 -84 -29 -73 -27 7 -214 -17 -351 -46 l-35 -7 41 46 c50 56 68
115 62 197 -5 76 -39 127 -125 190 -34 25 -62 47 -62 50 -2 15 140 -10 191
-33z m-599 -60 c-69 -72 -93 -123 -93 -192 0 -31 6 -70 14 -88 15 -36 63 -81
113 -105 18 -8 30 -19 27 -24 -11 -17 -72 -7 -110 19 -50 33 -126 69 -233 108
-47 16 -86 35 -88 41 -8 25 71 105 172 174 143 97 185 120 219 120 l29 0 -50
-53z m196 20 l22 -24 -47 -36 c-26 -21 -52 -37 -57 -37 -13 0 -3 86 13 105 18
22 43 18 69 -8z m131 -287 l55 -50 -29 -25 c-15 -14 -33 -24 -39 -22 -9 3 -24
40 -51 125 -11 33 3 27 64 -28z"/>
<path d="M4162 4685 c-90 -81 -126 -204 -104 -349 l11 -69 -60 -71 c-70 -83
-155 -204 -147 -211 2 -3 41 19 85 49 99 66 178 98 261 104 34 2 62 7 62 11 0
3 -23 35 -50 70 -48 61 -50 66 -50 127 0 35 5 87 11 116 10 47 19 60 81 120
79 74 81 86 19 118 -55 28 -75 25 -119 -15z"/>
<path d="M4367 4499 c-46 -36 -69 -149 -46 -220 19 -57 27 -60 96 -37 l61 20
64 -25 c70 -27 163 -43 172 -28 4 5 -15 20 -41 33 -71 35 -148 112 -201 199
-28 47 -53 79 -63 79 -9 0 -28 -9 -42 -21z"/>
<path d="M5118 4503 c-8 -10 -35 -52 -61 -94 -50 -81 -85 -114 -167 -155 -28
-14 -48 -29 -45 -35 11 -17 85 -9 165 17 73 24 85 26 137 15 66 -13 78 -7 93
50 20 73 -17 191 -66 209 -34 13 -39 13 -56 -7z"/>
<path d="M5410 4289 c0 -47 -39 -89 -110 -115 -25 -10 -49 -20 -53 -24 -4 -4
29 -14 74 -23 93 -18 210 -71 286 -128 29 -21 55 -39 58 -39 9 0 -46 102 -83
155 -57 79 -154 195 -163 195 -5 0 -9 -9 -9 -21z"/>
<path d="M4711 4093 c-40 -48 -56 -123 -42 -197 23 -124 65 -153 143 -100 41
29 78 94 78 140 0 16 -10 45 -23 66 -26 43 -104 128 -116 128 -5 0 -23 -17
-40 -37z"/>
<path d="M4330 3730 c-247 -72 -710 -242 -710 -260 0 -10 133 -54 225 -75 150
-33 206 -29 410 27 l110 31 210 -33 210 -32 190 31 c105 17 199 31 211 31 11
0 76 -16 145 -36 161 -46 216 -46 389 -6 187 44 220 53 220 62 0 17 -757 266
-841 277 -38 4 -59 -1 -128 -31 -45 -20 -107 -52 -137 -71 -30 -20 -61 -32
-67 -28 -7 3 -66 42 -133 85 -66 43 -125 78 -130 77 -5 0 -83 -22 -174 -49z"/>
<path d="M4342 3138 c-21 -21 -14 -34 48 -91 33 -31 60 -62 60 -69 0 -16 -91
-202 -120 -245 -20 -30 -20 -34 -5 -39 24 -10 82 10 150 52 195 120 256 138
463 132 l138 -3 124 -62 c69 -34 125 -61 127 -60 1 2 -14 33 -33 71 -49 99
-47 142 12 235 26 39 44 74 41 77 -3 4 -54 -5 -114 -19 -189 -45 -325 -68
-429 -74 -112 -6 -157 4 -338 73 -98 38 -107 39 -124 22z"/>
</g>
</svg>
